# xmcd CD database file
# Generated: Wed May 2 20:34:21 2001 by KSCD
# 
# Track frame offsets:
#       150
#       11443
#       24103
#       38130
#       48213
#       62175
#       83345
#       95775
#       110830
#       126143
#
# Disc length: 1869 seconds
#
# Revision: 1
# Processed by: cddbd v1.4b41PL1 Copyright (c) Steve Scherf et al.
# Submitted via: Kscd 1.2.7
#
DISCID=74074b0a
DTITLE=Rex Allen Jr. and Rex Allen Sr. - The Singing Cowboys
DYEAR=1900
DGENRE=
TTITLE0=Can You Hear Those Pioneers
TTITLE1=Tyin' Knots In The Devil's Tail
TTITLE2=Yippi Cry Yi
TTITLE3=Ride Cowboy Ride
TTITLE4=Tumbling Tumbleweeds - Cool Water
TTITLE5=Little Joe The Wrangler
TTITLE6=Texas Plains
TTITLE7=When The Work's All Done This Fall
TTITLE8=Last Of The Silver Screen Cowboys
TTITLE9=Arizona
EXTD=Rex Allen Cowboy Museum\nP.O. Box 207, Wilcox, AZ 85644\nFor Promotion
EXTD=al Use Only
EXTT0=
EXTT1=
EXTT2=
EXTT3=
EXTT4=
EXTT5=
EXTT6=
EXTT7=
EXTT8=
EXTT9=
PLAYORDER=
